<svg width="45" height="45" viewBox="0 0 45 45" fill="none" xmlns="http://www.w3.org/2000/svg">
<path d="M3.90786 5.1585C4.16547 4.42582 4.96825 4.04068 5.70094 4.29828L6.26607 4.49696C7.42204 4.90333 8.40387 5.24848 9.17652 5.6276C10.0027 6.03298 10.7112 6.53236 11.244 7.3121C11.7727 8.0858 11.991 8.93465 12.0918 9.86536C12.1368 10.282 12.1606 10.7431 12.1732 11.25H32.1198C35.2791 11.25 38.1231 11.25 38.9554 12.332C39.7879 13.4141 39.4624 15.0444 38.8116 18.3051L37.8745 22.8516C37.2837 25.7182 36.9882 27.1515 35.9538 27.9945C34.9193 28.8375 33.4559 28.8375 30.529 28.8375H20.5861C15.3568 28.8375 12.7422 28.8375 11.1177 27.1241C9.49323 25.4106 9.37467 23.5905 9.37467 18.075V13.1968C9.37467 11.8094 9.37276 10.8809 9.29558 10.168C9.22184 9.48674 9.09115 9.14658 8.92191 8.89891C8.7568 8.6573 8.50617 8.4315 7.93761 8.15253C7.33229 7.85551 6.50963 7.56386 5.25786 7.12376L4.76809 6.95156C4.0354 6.69397 3.65028 5.89119 3.90786 5.1585Z" fill="#32241A"/>
<path d="M14.0625 33.75C15.6158 33.75 16.875 35.0092 16.875 36.5625C16.875 38.1157 15.6158 39.375 14.0625 39.375C12.5092 39.375 11.25 38.1157 11.25 36.5625C11.25 35.0092 12.5092 33.75 14.0625 33.75Z" fill="#32241A"/>
<path d="M30.9375 33.7502C32.4907 33.7502 33.75 35.0092 33.75 36.5627C33.75 38.1159 32.4907 39.3752 30.9375 39.3752C29.3842 39.3752 28.125 38.1159 28.125 36.5627C28.125 35.0092 29.3842 33.7502 30.9375 33.7502Z" fill="#32241A"/>
</svg>
