<svg width="1920" height="2183" viewBox="0 0 1920 2183" fill="none" xmlns="http://www.w3.org/2000/svg">
<path d="M-14.604 970.799C-13.4524 969.688 -12.6479 969.001 -12.1905 968.737C-11.6871 968.43 -11.2354 968.483 -10.8355 968.898L1.89399 982.095C0.788464 983.161 0.00619691 983.871 -0.452808 984.225C-0.911813 984.579 -1.36347 984.526 -1.80778 984.065L-14.604 970.799Z" fill="#32241A" fill-opacity="0.2"/>
<path d="M10.1358 996.836C11.2686 995.706 12.0613 995.005 12.5142 994.734C13.0124 994.418 13.4649 994.464 13.8717 994.871L26.8218 1007.85C25.7344 1008.94 24.9642 1009.66 24.5113 1010.02C24.0583 1010.38 23.6058 1010.34 23.1538 1009.88L10.1358 996.836Z" fill="#32241A" fill-opacity="0.2"/>
<path d="M35.1998 1022.57C36.2941 1021.41 37.0631 1020.68 37.5067 1020.39C37.994 1020.06 38.4478 1020.09 38.868 1020.49L52.2445 1033.03C51.1939 1034.15 50.4483 1034.9 50.0077 1035.27C49.567 1035.65 49.1132 1035.62 48.6463 1035.18L35.1998 1022.57Z" fill="#32241A" fill-opacity="0.2"/>
<path d="M62.031 1048.6C63.0632 1047.37 63.7934 1046.61 64.2215 1046.3C64.6909 1045.94 65.1456 1045.95 65.5857 1046.32L79.5958 1058.15C78.6048 1059.32 77.8991 1060.11 77.4786 1060.51C77.0582 1060.91 76.6034 1060.9 76.1144 1060.49L62.031 1048.6Z" fill="#32241A" fill-opacity="0.2"/>
<path d="M90.8614 1073.9C91.8079 1072.61 92.4841 1071.8 92.8902 1071.46C93.3341 1071.07 93.7883 1071.05 94.2527 1071.39L109.037 1082.24C108.128 1083.48 107.478 1084.31 107.085 1084.74C106.693 1085.16 106.239 1085.19 105.723 1084.81L90.8614 1073.9Z" fill="#32241A" fill-opacity="0.2"/>
<path d="M120.94 1096.54C121.818 1095.2 122.451 1094.35 122.839 1093.99C123.262 1093.58 123.714 1093.53 124.195 1093.85L139.526 1103.91C138.684 1105.19 138.078 1106.06 137.708 1106.5C137.339 1106.95 136.886 1107 136.351 1106.65L120.94 1096.54Z" fill="#32241A" fill-opacity="0.2"/>
<path d="M149.524 1114.94C150.409 1113.61 151.047 1112.76 151.437 1112.41C151.862 1112 152.315 1111.95 152.795 1112.27L168.066 1122.42C167.216 1123.7 166.605 1124.56 166.233 1125.01C165.86 1125.45 165.408 1125.49 164.875 1125.14L149.524 1114.94Z" fill="#32241A" fill-opacity="0.2"/>
<path d="M177.125 1133.17C178.025 1131.85 178.672 1131.01 179.066 1130.66C179.496 1130.25 179.949 1130.21 180.425 1130.54L195.584 1140.85C194.72 1142.12 194.099 1142.98 193.722 1143.42C193.345 1143.86 192.892 1143.9 192.363 1143.54L177.125 1133.17Z" fill="#32241A" fill-opacity="0.2"/>
<path d="M205.539 1152.56C206.437 1151.24 207.083 1150.4 207.476 1150.05C207.906 1149.64 208.359 1149.6 208.835 1149.93L224.011 1160.22C223.149 1161.49 222.529 1162.34 222.153 1162.79C221.777 1163.23 221.324 1163.27 220.794 1162.91L205.539 1152.56Z" fill="#32241A" fill-opacity="0.2"/>
<path d="M233.938 1172C234.822 1170.67 235.46 1169.82 235.849 1169.47C236.275 1169.06 236.727 1169.01 237.207 1169.33L252.485 1179.47C251.635 1180.75 251.025 1181.61 250.653 1182.06C250.281 1182.5 249.829 1182.55 249.295 1182.19L233.938 1172Z" fill="#32241A" fill-opacity="0.2"/>
<path d="M263.358 1191.87C264.215 1190.52 264.835 1189.66 265.217 1189.3C265.633 1188.88 266.085 1188.83 266.571 1189.14L282.057 1198.95C281.235 1200.25 280.642 1201.13 280.28 1201.58C279.917 1202.03 279.466 1202.09 278.925 1201.74L263.358 1191.87Z" fill="#32241A" fill-opacity="0.2"/>
<path d="M293.702 1211.62C294.513 1210.24 295.104 1209.36 295.473 1208.99C295.876 1208.56 296.325 1208.49 296.822 1208.78L312.627 1218.07C311.849 1219.4 311.286 1220.29 310.939 1220.75C310.592 1221.22 310.142 1221.29 309.59 1220.96L293.702 1211.62Z" fill="#32241A" fill-opacity="0.2"/>
<path d="M325.8 1231.2C326.54 1229.78 327.085 1228.87 327.435 1228.48C327.815 1228.02 328.26 1227.93 328.771 1228.2L345.03 1236.68C344.32 1238.04 343.803 1238.96 343.48 1239.44C343.157 1239.92 342.712 1240.01 342.144 1239.72L325.8 1231.2Z" fill="#32241A" fill-opacity="0.2"/>
<path d="M358.862 1249.16C359.517 1247.7 360.008 1246.76 360.335 1246.34C360.687 1245.87 361.126 1245.75 361.652 1245.99L378.38 1253.5C377.751 1254.9 377.289 1255.85 376.995 1256.35C376.7 1256.85 376.261 1256.97 375.677 1256.7L358.862 1249.16Z" fill="#32241A" fill-opacity="0.2"/>
<path d="M392.794 1264.95C393.375 1263.46 393.817 1262.5 394.122 1262.07C394.451 1261.58 394.883 1261.44 395.42 1261.65L412.507 1268.3C411.949 1269.73 411.537 1270.71 411.268 1271.22C410.999 1271.73 410.567 1271.87 409.97 1271.64L392.794 1264.95Z" fill="#32241A" fill-opacity="0.2"/>
<path d="M426.229 1278.29C426.762 1276.78 427.174 1275.81 427.465 1275.37C427.778 1274.87 428.205 1274.71 428.749 1274.91L446.037 1281.01C445.526 1282.46 445.144 1283.45 444.892 1283.97C444.639 1284.49 444.211 1284.64 443.608 1284.43L426.229 1278.29Z" fill="#32241A" fill-opacity="0.2"/>
<path d="M459.172 1289.98C459.693 1288.46 460.097 1287.48 460.385 1287.04C460.693 1286.54 461.12 1286.38 461.665 1286.57L479.001 1292.54C478.501 1293.99 478.127 1294.98 477.879 1295.5C477.63 1296.03 477.204 1296.19 476.599 1295.98L459.172 1289.98Z" fill="#32241A" fill-opacity="0.2"/>
<path d="M490.54 1300.65C491.071 1299.14 491.482 1298.17 491.773 1297.73C492.085 1297.23 492.513 1297.07 493.056 1297.26L510.352 1303.35C509.842 1304.8 509.461 1305.79 509.21 1306.31C508.958 1306.83 508.53 1306.98 507.927 1306.77L490.54 1300.65Z" fill="#32241A" fill-opacity="0.2"/>
<path d="M522.159 1311.54C522.714 1310.04 523.141 1309.07 523.438 1308.64C523.758 1308.14 524.188 1307.99 524.728 1308.19L541.926 1314.55C541.393 1315.99 540.996 1316.97 540.737 1317.49C540.477 1318.01 540.047 1318.16 539.446 1317.94L522.159 1311.54Z" fill="#32241A" fill-opacity="0.2"/>
<path d="M552.246 1322.35C552.832 1320.86 553.279 1319.9 553.585 1319.47C553.916 1318.98 554.349 1318.84 554.885 1319.05L571.945 1325.77C571.382 1327.2 570.965 1328.17 570.694 1328.69C570.424 1329.2 569.991 1329.34 569.395 1329.1L552.246 1322.35Z" fill="#32241A" fill-opacity="0.2"/>
<path d="M583.106 1334.14C583.729 1332.66 584.2 1331.72 584.517 1331.3C584.86 1330.81 585.296 1330.69 585.827 1330.91L602.713 1338.06C602.114 1339.47 601.673 1340.43 601.389 1340.94C601.106 1341.44 600.67 1341.57 600.08 1341.32L583.106 1334.14Z" fill="#32241A" fill-opacity="0.2"/>
<path d="M613.54 1346.67C614.2 1345.22 614.694 1344.28 615.022 1343.87C615.377 1343.4 615.816 1343.28 616.341 1343.52L633.042 1351.08C632.409 1352.48 631.944 1353.43 631.648 1353.93C631.352 1354.43 630.912 1354.54 630.329 1354.28L613.54 1346.67Z" fill="#32241A" fill-opacity="0.2"/>
<path d="M643.351 1359.89C644.04 1358.45 644.553 1357.52 644.889 1357.12C645.253 1356.65 645.695 1356.55 646.215 1356.79L662.76 1364.7C662.098 1366.08 661.615 1367.02 661.309 1367.51C661.003 1368.01 660.561 1368.11 659.983 1367.84L643.351 1359.89Z" fill="#32241A" fill-opacity="0.2"/>
<path d="M673.182 1373.9C673.896 1372.47 674.425 1371.55 674.768 1371.15C675.139 1370.69 675.583 1370.59 676.098 1370.85L692.506 1379.03C691.821 1380.41 691.321 1381.34 691.006 1381.82C690.692 1382.31 690.248 1382.41 689.675 1382.12L673.182 1373.9Z" fill="#32241A" fill-opacity="0.2"/>
<path d="M702.562 1388.33C703.298 1386.91 703.84 1386 704.189 1385.61C704.567 1385.16 705.012 1385.06 705.524 1385.33L721.807 1393.76C721.101 1395.12 720.587 1396.04 720.266 1396.53C719.944 1397.01 719.499 1397.1 718.931 1396.81L702.562 1388.33Z" fill="#32241A" fill-opacity="0.2"/>
<path d="M732.493 1403.63C733.248 1402.22 733.803 1401.32 734.157 1400.93C734.542 1400.48 734.988 1400.39 735.496 1400.67L751.662 1409.32C750.937 1410.67 750.41 1411.59 750.082 1412.07C749.754 1412.54 749.307 1412.63 748.743 1412.33L732.493 1403.63Z" fill="#32241A" fill-opacity="0.2"/>
<path d="M761.839 1419.15C762.612 1417.75 763.178 1416.86 763.538 1416.47C763.928 1416.03 764.376 1415.95 764.88 1416.23L780.933 1425.09C780.191 1426.43 779.653 1427.34 779.318 1427.81C778.984 1428.29 778.537 1428.37 777.976 1428.06L761.839 1419.15Z" fill="#32241A" fill-opacity="0.2"/>
<path d="M790.852 1434.98C791.643 1433.59 792.22 1432.7 792.584 1432.32C792.98 1431.88 793.428 1431.81 793.929 1432.09L809.871 1441.15C809.112 1442.48 808.563 1443.39 808.223 1443.86C807.883 1444.32 807.434 1444.4 806.878 1444.08L790.852 1434.98Z" fill="#32241A" fill-opacity="0.2"/>
<path d="M820.099 1451.39C820.908 1450.01 821.498 1449.13 821.867 1448.75C822.269 1448.32 822.718 1448.25 823.215 1448.54L839.035 1457.81C838.258 1459.14 837.696 1460.03 837.35 1460.5C837.004 1460.96 836.554 1461.03 836.002 1460.71L820.099 1451.39Z" fill="#32241A" fill-opacity="0.2"/>
<path d="M848.512 1467.72C849.347 1466.36 849.953 1465.49 850.329 1465.12C850.739 1464.7 851.189 1464.63 851.681 1464.94L867.322 1474.5C866.521 1475.81 865.942 1476.7 865.587 1477.16C865.232 1477.61 864.781 1477.68 864.235 1477.34L848.512 1467.72Z" fill="#32241A" fill-opacity="0.2"/>
<path d="M876.345 1484.32C877.214 1482.98 877.842 1482.13 878.227 1481.77C878.648 1481.36 879.1 1481.3 879.583 1481.62L894.975 1491.58C894.141 1492.87 893.54 1493.74 893.173 1494.19C892.807 1494.64 892.355 1494.69 891.817 1494.34L876.345 1484.32Z" fill="#32241A" fill-opacity="0.2"/>
<path d="M903.762 1501.57C904.672 1500.25 905.325 1499.42 905.722 1499.07C906.155 1498.67 906.608 1498.63 907.082 1498.96L922.162 1509.39C921.288 1510.66 920.661 1511.51 920.28 1511.94C919.9 1512.38 919.447 1512.42 918.92 1512.05L903.762 1501.57Z" fill="#32241A" fill-opacity="0.2"/>
<path d="M930.069 1519.22C931.021 1517.94 931.701 1517.13 932.108 1516.79C932.554 1516.41 933.008 1516.38 933.471 1516.73L948.209 1527.63C947.295 1528.87 946.641 1529.7 946.247 1530.12C945.853 1530.55 945.399 1530.57 944.884 1530.19L930.069 1519.22Z" fill="#32241A" fill-opacity="0.2"/>
<path d="M956.015 1537.91C957.007 1536.65 957.711 1535.86 958.129 1535.54C958.586 1535.17 959.041 1535.16 959.493 1535.52L973.886 1546.88C972.934 1548.08 972.255 1548.89 971.848 1549.3C971.441 1549.72 970.986 1549.72 970.483 1549.33L956.015 1537.91Z" fill="#32241A" fill-opacity="0.2"/>
<path d="M981.617 1557.65C982.643 1556.42 983.369 1555.65 983.796 1555.34C984.264 1554.98 984.718 1554.99 985.16 1555.36L999.232 1567.11C998.247 1568.29 997.545 1569.08 997.127 1569.48C996.708 1569.88 996.253 1569.88 995.762 1569.47L981.617 1557.65Z" fill="#32241A" fill-opacity="0.2"/>
<path d="M1007.1 1578.53C1008.15 1577.33 1008.9 1576.58 1009.33 1576.28C1009.81 1575.93 1010.26 1575.95 1010.7 1576.33L1024.48 1588.42C1023.47 1589.57 1022.75 1590.35 1022.32 1590.74C1021.89 1591.13 1021.43 1591.11 1020.95 1590.69L1007.1 1578.53Z" fill="#32241A" fill-opacity="0.2"/>
<path d="M1031.73 1599.79C1032.81 1598.61 1033.57 1597.87 1034.01 1597.58C1034.5 1597.24 1034.95 1597.27 1035.38 1597.66L1048.91 1610.03C1047.87 1611.17 1047.13 1611.92 1046.7 1612.31C1046.26 1612.69 1045.81 1612.66 1045.34 1612.23L1031.73 1599.79Z" fill="#32241A" fill-opacity="0.2"/>
<path d="M1056.09 1621.74C1057.19 1620.58 1057.96 1619.85 1058.41 1619.57C1058.9 1619.24 1059.35 1619.27 1059.77 1619.67L1073.07 1632.3C1072.01 1633.41 1071.26 1634.15 1070.82 1634.53C1070.37 1634.9 1069.92 1634.87 1069.45 1634.43L1056.09 1621.74Z" fill="#32241A" fill-opacity="0.2"/>
<path d="M1080.38 1644.49C1081.5 1643.35 1082.29 1642.64 1082.74 1642.37C1083.23 1642.04 1083.69 1642.09 1084.1 1642.49L1097.17 1655.35C1096.09 1656.44 1095.33 1657.17 1094.88 1657.54C1094.43 1657.9 1093.98 1657.86 1093.52 1657.41L1080.38 1644.49Z" fill="#32241A" fill-opacity="0.2"/>
<path d="M1103.86 1667.27C1105 1666.15 1105.8 1665.45 1106.25 1665.19C1106.75 1664.87 1107.2 1664.92 1107.61 1665.33L1120.46 1678.41C1119.37 1679.48 1118.59 1680.2 1118.14 1680.56C1117.68 1680.92 1117.23 1680.87 1116.78 1680.41L1103.86 1667.27Z" fill="#32241A" fill-opacity="0.2"/>
<path d="M1127.37 1690.86C1128.53 1689.76 1129.33 1689.08 1129.79 1688.82C1130.3 1688.52 1130.75 1688.57 1131.15 1688.99L1143.78 1702.28C1142.67 1703.34 1141.88 1704.04 1141.42 1704.39C1140.96 1704.74 1140.51 1704.68 1140.07 1704.22L1127.37 1690.86Z" fill="#32241A" fill-opacity="0.2"/>
<path d="M1150.22 1714.58C1151.4 1713.49 1152.22 1712.83 1152.68 1712.57C1153.19 1712.28 1153.64 1712.34 1154.03 1712.77L1166.44 1726.27C1165.31 1727.3 1164.51 1728 1164.05 1728.34C1163.58 1728.68 1163.13 1728.62 1162.7 1728.15L1150.22 1714.58Z" fill="#32241A" fill-opacity="0.2"/>
<path d="M1172.3 1738.25C1173.5 1737.19 1174.33 1736.53 1174.8 1736.29C1175.31 1736 1175.76 1736.07 1176.14 1736.5L1188.32 1750.21C1187.17 1751.23 1186.36 1751.91 1185.89 1752.24C1185.41 1752.58 1184.97 1752.51 1184.54 1752.03L1172.3 1738.25Z" fill="#32241A" fill-opacity="0.2"/>
<path d="M1194.42 1762.78C1195.63 1761.74 1196.47 1761.1 1196.95 1760.86C1197.47 1760.58 1197.92 1760.66 1198.29 1761.1L1210.21 1775.03C1209.05 1776.03 1208.22 1776.69 1207.74 1777.02C1207.26 1777.35 1206.82 1777.27 1206.4 1776.78L1194.42 1762.78Z" fill="#32241A" fill-opacity="0.2"/>
<path d="M1216.4 1788.05C1217.64 1787.04 1218.49 1786.42 1218.97 1786.19C1219.5 1785.92 1219.94 1786.01 1220.31 1786.46L1231.94 1800.63C1230.76 1801.6 1229.92 1802.25 1229.44 1802.56C1228.95 1802.88 1228.5 1802.79 1228.1 1802.3L1216.4 1788.05Z" fill="#32241A" fill-opacity="0.2"/>
<path d="M1237.52 1813.34C1238.78 1812.36 1239.65 1811.75 1240.13 1811.54C1240.66 1811.28 1241.11 1811.38 1241.46 1811.83L1252.81 1826.24C1251.6 1827.19 1250.75 1827.82 1250.26 1828.12C1249.76 1828.43 1249.32 1828.33 1248.92 1827.83L1237.52 1813.34Z" fill="#32241A" fill-opacity="0.2"/>
<path d="M1257.85 1838.73C1259.12 1837.76 1260.01 1837.18 1260.49 1836.97C1261.03 1836.73 1261.47 1836.83 1261.82 1837.29L1272.87 1851.93C1271.64 1852.85 1270.78 1853.46 1270.28 1853.76C1269.78 1854.06 1269.34 1853.95 1268.96 1853.44L1257.85 1838.73Z" fill="#32241A" fill-opacity="0.2"/>
<path d="M1277.78 1864.68C1279.07 1863.74 1279.97 1863.18 1280.46 1862.98C1281 1862.75 1281.44 1862.86 1281.77 1863.33L1292.53 1878.18C1291.29 1879.08 1290.41 1879.67 1289.91 1879.96C1289.41 1880.24 1288.97 1880.13 1288.59 1879.61L1277.78 1864.68Z" fill="#32241A" fill-opacity="0.2"/>
<path d="M1297.29 1891.19C1298.61 1890.27 1299.51 1889.72 1300 1889.54C1300.55 1889.31 1300.99 1889.44 1301.32 1889.91L1311.78 1904.97C1310.52 1905.84 1309.63 1906.42 1309.12 1906.7C1308.61 1906.97 1308.18 1906.85 1307.81 1906.32L1297.29 1891.19Z" fill="#32241A" fill-opacity="0.2"/>
<path d="M1316.06 1917.76C1317.39 1916.87 1318.31 1916.34 1318.81 1916.16C1319.36 1915.95 1319.79 1916.08 1320.11 1916.56L1330.29 1931.81C1329.01 1932.66 1328.12 1933.22 1327.6 1933.49C1327.09 1933.76 1326.65 1933.62 1326.3 1933.09L1316.06 1917.76Z" fill="#32241A" fill-opacity="0.2"/>
<path d="M1334.43 1944.85C1335.78 1943.99 1336.7 1943.47 1337.2 1943.3C1337.76 1943.1 1338.19 1943.24 1338.5 1943.73L1348.4 1959.16C1347.11 1959.99 1346.2 1960.53 1345.68 1960.79C1345.16 1961.05 1344.73 1960.91 1344.38 1960.37L1334.43 1944.85Z" fill="#32241A" fill-opacity="0.2"/>
<path d="M1352.39 1972.43C1353.76 1971.59 1354.69 1971.09 1355.19 1970.93C1355.75 1970.74 1356.18 1970.89 1356.48 1971.38L1366.11 1986.98C1364.8 1987.79 1363.88 1988.32 1363.36 1988.57C1362.83 1988.81 1362.4 1988.67 1362.07 1988.12L1352.39 1972.43Z" fill="#32241A" fill-opacity="0.2"/>
<path d="M1369.94 2000.47C1371.32 1999.65 1372.26 1999.17 1372.76 1999.02C1373.32 1998.83 1373.75 1998.99 1374.04 1999.49L1383.4 2015.25C1382.08 2016.04 1381.16 2016.55 1380.63 2016.79C1380.1 2017.03 1379.68 2016.87 1379.35 2016.32L1369.94 2000.47Z" fill="#32241A" fill-opacity="0.2"/>
<path d="M1387.39 2029.44C1388.78 2028.65 1389.73 2028.18 1390.24 2028.04C1390.8 2027.86 1391.23 2028.03 1391.51 2028.53L1400.6 2044.45C1399.27 2045.21 1398.33 2045.71 1397.8 2045.94C1397.27 2046.17 1396.85 2046 1396.53 2045.45L1387.39 2029.44Z" fill="#32241A" fill-opacity="0.2"/>
<path d="M1403.74 2057.55C1405.14 2056.79 1406.1 2056.34 1406.61 2056.2C1407.18 2056.04 1407.6 2056.21 1407.88 2056.72L1416.66 2072.81C1415.31 2073.55 1414.37 2074.03 1413.84 2074.25C1413.3 2074.47 1412.88 2074.29 1412.57 2073.73L1403.74 2057.55Z" fill="#32241A" fill-opacity="0.2"/>
<path d="M1419.75 2086.26C1421.17 2085.52 1422.14 2085.09 1422.66 2084.97C1423.23 2084.82 1423.64 2085 1423.91 2085.51L1432.33 2101.8C1430.97 2102.5 1430.02 2102.96 1429.48 2103.17C1428.93 2103.38 1428.52 2103.2 1428.22 2102.63L1419.75 2086.26Z" fill="#32241A" fill-opacity="0.2"/>
<path d="M1434.98 2114.96C1436.42 2114.26 1437.4 2113.85 1437.91 2113.74C1438.49 2113.61 1438.9 2113.8 1439.15 2114.32L1447.17 2130.8C1445.79 2131.48 1444.83 2131.91 1444.28 2132.1C1443.74 2132.3 1443.33 2132.11 1443.05 2131.53L1434.98 2114.96Z" fill="#32241A" fill-opacity="0.2"/>
<path d="M1449.45 2143.86C1450.9 2143.2 1451.89 2142.82 1452.41 2142.73C1452.99 2142.61 1453.4 2142.81 1453.63 2143.33L1461.22 2160.02C1459.82 2160.66 1458.84 2161.07 1458.29 2161.25C1457.74 2161.43 1457.34 2161.23 1457.07 2160.64L1449.45 2143.86Z" fill="#32241A" fill-opacity="0.2"/>
<path d="M1463.01 2172.82C1464.48 2172.2 1465.48 2171.85 1466 2171.77C1466.58 2171.66 1466.99 2171.87 1467.21 2172.4L1474.34 2189.3C1472.92 2189.89 1471.94 2190.28 1471.38 2190.44C1470.83 2190.61 1470.43 2190.39 1470.18 2189.8L1463.01 2172.82Z" fill="#32241A" fill-opacity="0.2"/>
</svg>
