<svg width="40" height="40" viewBox="0 0 40 40" fill="none" xmlns="http://www.w3.org/2000/svg">
<path fill-rule="evenodd" clip-rule="evenodd" d="M36.7042 17.0416L33.2714 27.3402C30.851 34.6016 29.6408 38.2322 27.866 39.2638C26.1778 40.2454 24.0926 40.2454 22.4044 39.2638C20.6296 38.2322 19.4194 34.6016 16.999 27.3402C16.6104 26.1744 16.416 25.5914 16.0898 25.1042C15.7738 24.632 15.3681 24.2262 14.8959 23.9102C14.4086 23.584 13.8257 23.3896 12.6598 23.001C5.39847 20.5806 1.76785 19.3704 0.736126 17.5956C-0.245375 15.9074 -0.245375 13.8222 0.736126 12.134C1.76785 10.3593 5.39847 9.14906 12.6598 6.72864L22.9584 3.29576C31.9552 0.296835 36.4536 -1.20263 38.828 1.1719C41.2026 3.54644 39.7032 8.04484 36.7042 17.0416ZM22.0914 17.8044C21.5088 17.2154 21.5142 16.2656 22.1032 15.6831L30.5242 7.35484C31.1132 6.7723 32.063 6.77756 32.6454 7.3666C33.228 7.95562 33.2228 8.90534 32.6338 9.48788L24.2126 17.8162C23.6236 18.3986 22.674 18.3934 22.0914 17.8044Z" fill="#FBFAF5"/>
</svg>
