<svg width="60" height="35" viewBox="0 0 60 35" fill="none" xmlns="http://www.w3.org/2000/svg">
<path d="M57.3915 27.2986C56.0851 25.7161 54.6005 24.2978 53.1649 22.9261C52.6544 22.4383 52.1266 21.934 51.6177 21.4325C50.1569 19.9911 50.1038 19.4496 51.2603 17.8125C52.0605 16.684 52.9089 15.554 53.7294 14.4612C54.4735 13.4697 55.2431 12.4444 55.9807 11.4157L56.1322 11.2042C57.5419 9.23575 58.9999 7.20026 59.7758 4.74479C59.9772 4.09696 60.1888 3.14364 59.7051 2.34648C59.2217 1.54998 58.2839 1.30699 57.6205 1.19349C57.2924 1.13732 56.9665 1.12966 56.6641 1.12966L47.4319 1.12299L47.3556 1.12232C45.9598 1.12232 45.0191 1.78615 44.48 3.15197C43.9654 4.45696 43.4001 5.84661 42.755 7.16793C41.4713 9.79907 39.8409 12.8295 37.4817 15.357L37.3819 15.4645C37.1033 15.7667 36.7877 16.1088 36.557 16.1088C36.5216 16.1088 36.4832 16.102 36.4396 16.0882C35.9509 15.896 35.6229 14.7022 35.6377 14.1469C35.6379 14.1392 35.6381 14.1315 35.6381 14.1239L35.6316 3.35563C35.6316 3.3183 35.629 3.2813 35.6242 3.2443C35.3894 1.49382 34.8691 0.404162 32.9035 0.0156655C32.8513 0.00516564 32.7979 0 32.7448 0H23.1451C21.5811 0 20.7194 0.641494 19.9093 1.60165C19.6906 1.85832 19.2355 2.39264 19.4611 3.0408C19.69 3.69863 20.433 3.8393 20.6749 3.88496C21.8759 4.11563 22.5529 4.85695 22.7446 6.15227C23.0794 8.40159 23.1205 10.8024 22.8741 13.7079C22.8054 14.5154 22.6695 15.139 22.4455 15.6719C22.3935 15.7962 22.209 16.202 22.0209 16.2022C21.9611 16.2022 21.7882 16.1785 21.4733 15.9595C20.7286 15.4447 20.1838 14.71 19.5486 13.8025C17.3877 10.7207 15.5742 7.32576 14.0036 3.4213C13.4211 1.98398 12.3333 1.17932 10.939 1.15566C9.40709 1.13216 8.01815 1.12082 6.69347 1.12082C5.24607 1.12082 3.90421 1.13432 2.59389 1.16182C1.47217 1.18182 0.696288 1.52115 0.288032 2.17115C-0.120886 2.82164 -0.094296 3.67613 0.36714 4.71046C4.06094 12.9975 7.41006 19.023 11.2267 24.2483C13.901 27.9046 16.5835 30.4354 19.6675 32.2122C22.9167 34.088 26.558 35 30.7991 35C31.2799 35 31.777 34.9882 32.2782 34.9645C34.7426 34.8433 35.6569 33.9432 35.7725 31.5217C35.8275 30.2842 35.9616 28.9864 36.5644 27.8796C36.9449 27.1822 37.2997 27.1822 37.4163 27.1822C37.6409 27.1822 37.9193 27.2866 38.2184 27.4821C38.7548 27.8354 39.2148 28.3087 39.5918 28.7222C39.9467 29.1151 40.2977 29.5119 40.649 29.9089C41.407 30.7657 42.1908 31.6515 43.0097 32.4917C44.8019 34.3318 46.7763 35.1412 49.044 34.9655H57.5084C57.5264 34.9655 57.5445 34.9648 57.5625 34.9637C58.406 34.9075 59.1365 34.4353 59.5667 33.6683C60.0996 32.7182 60.0889 31.506 59.5379 30.425C58.9128 29.2027 58.1019 28.1584 57.3915 27.2986Z" fill="#FBFAF5"/>
</svg>
