<svg width="50" height="50" viewBox="0 0 50 50" fill="none" xmlns="http://www.w3.org/2000/svg">
<path d="M25.0001 4.16663C13.5105 4.16663 4.16675 13.5104 4.16675 25C4.16675 28.3229 4.96883 31.6041 6.48966 34.552L4.2605 42.5312C4.0105 43.4375 4.27091 44.4062 4.92716 45.0729C5.42716 45.5625 6.09383 45.8333 6.77091 45.8333C7.0105 45.8333 7.23966 45.802 7.46883 45.7395L15.448 43.5104C18.3959 45.0312 21.6876 45.8333 25.0001 45.8333C36.4897 45.8333 45.8334 36.4895 45.8334 25C45.8334 13.5104 36.4897 4.16663 25.0001 4.16663ZM35.7917 32.677C35.3334 33.9583 33.0834 35.1979 32.073 35.2916C31.0626 35.3854 30.1147 35.75 25.4688 33.9166C19.8647 31.7083 16.323 25.9687 16.0522 25.5937C15.7709 25.2291 13.8022 22.6145 13.8022 19.8958C13.8022 17.1875 15.2292 15.8541 15.7292 15.302C16.2397 14.75 16.8334 14.6145 17.198 14.6145C17.573 14.6145 17.9376 14.6145 18.2605 14.625C18.6459 14.6458 19.0834 14.6666 19.5001 15.5833C19.9897 16.6666 21.0626 19.3958 21.198 19.677C21.3334 19.9479 21.4272 20.2708 21.2397 20.6354C21.0626 21 20.9688 21.2291 20.6876 21.552C20.4167 21.875 20.1147 22.2708 19.8647 22.5208C19.5938 22.7916 19.3022 23.0937 19.6251 23.6458C19.948 24.1979 21.0522 26 22.6876 27.4583C24.7917 29.3333 26.5626 29.9166 27.1147 30.1979C27.6667 30.4687 27.9897 30.427 28.3126 30.052C28.6355 29.6875 29.6876 28.4479 30.0626 27.8958C30.4272 27.3437 30.7917 27.4375 31.3022 27.625C31.8022 27.802 34.5105 29.1354 35.0626 29.4166C35.6147 29.6875 35.9792 29.8229 36.1147 30.052C36.2501 30.2812 36.2501 31.3854 35.7917 32.677Z" fill="#FBFAF5"/>
</svg>
